REM DIRINDEX 1\6,1\2\7,1\2\8,1\2\9,1\3\10,1\3\11,1\4\12,1\4\13,1\4\14,1\5\15,1\5\16,1\5\17
REM DIRNAME folder01,folder02,folder03,folder04,folder05,folder06,folder07,folder08,folder09,folder10,folder11,folder12,folder13,folder14,folder15,folder16,folder17
TITLE ""
FILE "3Q_t_0456-0471.mp3" MP3
  TRACK 01 AUDIO
    TITLE "10:cjc041_2519"
    INDEX 01 00:00:00
  TRACK 02 AUDIO
    TITLE "0:"
    INDEX 01 00:01:30
  TRACK 03 AUDIO
    TITLE "11:cjc041_2520"
    INDEX 01 00:02:00
  TRACK 04 AUDIO
    TITLE "0:"
    INDEX 01 00:04:25
  TRACK 05 AUDIO
    TITLE "10:cjc041_2521"
    INDEX 01 00:05:01
  TRACK 06 AUDIO
    TITLE "0:"
    INDEX 01 00:06:18
  TRACK 07 AUDIO
    TITLE "11:cjc041_2522"
    INDEX 01 00:06:71
  TRACK 08 AUDIO
    TITLE "0:"
    INDEX 01 00:09:00
  TRACK 09 AUDIO
    TITLE "10:cjc041_2523"
    INDEX 01 00:09:57
  TRACK 10 AUDIO
    TITLE "0:"
    INDEX 01 00:11:13
  TRACK 11 AUDIO
    TITLE "11:cjc041_2524"
    INDEX 01 00:11:64
  TRACK 12 AUDIO
    TITLE "0:"
    INDEX 01 00:14:06
  TRACK 13 AUDIO
    TITLE "10:cjc041_2525"
    INDEX 01 00:14:58
  TRACK 14 AUDIO
    TITLE "0:"
    INDEX 01 00:16:02
  TRACK 15 AUDIO
    TITLE "11:cjc041_2526"
    INDEX 01 00:16:53
  TRACK 16 AUDIO
    TITLE "0:"
    INDEX 01 00:17:65
  TRACK 17 AUDIO
    TITLE "10:cjc041_2527"
    INDEX 01 00:18:44
  TRACK 18 AUDIO
    TITLE "0:"
    INDEX 01 00:19:54
  TRACK 19 AUDIO
    TITLE "11:cjc041_2528"
    INDEX 01 00:20:34
  TRACK 20 AUDIO
    TITLE "0:"
    INDEX 01 00:21:41
  TRACK 21 AUDIO
    TITLE "10:cjc041_2529"
    INDEX 01 00:22:23
  TRACK 22 AUDIO
    TITLE "0:"
    INDEX 01 00:23:44
  TRACK 23 AUDIO
    TITLE "11:cjc041_2530"
    INDEX 01 00:24:24
  TRACK 24 AUDIO
    TITLE "0:"
    INDEX 01 00:25:35
  TRACK 25 AUDIO
    TITLE "10:cjc041_2531"
    INDEX 01 00:26:13
  TRACK 26 AUDIO
    TITLE "0:"
    INDEX 01 00:27:24
  TRACK 27 AUDIO
    TITLE "11:cjc041_2532"
    INDEX 01 00:28:02
  TRACK 28 AUDIO
    TITLE "0:"
    INDEX 01 00:29:19
  TRACK 29 AUDIO
    TITLE "10:cjc041_2533"
    INDEX 01 00:29:74
  TRACK 30 AUDIO
    TITLE "0:"
    INDEX 01 00:31:16
  TRACK 31 AUDIO
    TITLE "11:cjc041_2534"
    INDEX 01 00:31:67
  TRACK 32 AUDIO
    TITLE "0:"
    INDEX 01 00:33:07
  TRACK 33 AUDIO
    TITLE "10:cjc041_2535"
    INDEX 01 00:33:64
  TRACK 34 AUDIO
    TITLE "0:"
    INDEX 01 00:35:19
  TRACK 35 AUDIO
    TITLE "11:cjc041_2536"
    INDEX 01 00:35:68
  TRACK 36 AUDIO
    TITLE "0:"
    INDEX 01 00:37:12
  TRACK 37 AUDIO
    TITLE "10:cjc041_2537"
    INDEX 01 00:37:63
  TRACK 38 AUDIO
    TITLE "0:"
    INDEX 01 00:39:03
  TRACK 39 AUDIO
    TITLE "11:cjc041_2538"
    INDEX 01 00:39:47
  TRACK 40 AUDIO
    TITLE "0:"
    INDEX 01 00:40:52
  TRACK 41 AUDIO
    TITLE "10:cjc041_2539"
    INDEX 01 00:41:28
  TRACK 42 AUDIO
    TITLE "0:"
    INDEX 01 00:42:39
  TRACK 43 AUDIO
    TITLE "11:cjc041_2540"
    INDEX 01 00:43:19
  TRACK 44 AUDIO
    TITLE "0:"
    INDEX 01 00:44:30
  TRACK 45 AUDIO
    TITLE "10:cjc041_2541"
    INDEX 01 00:45:04
  TRACK 46 AUDIO
    TITLE "0:"
    INDEX 01 00:46:13
  TRACK 47 AUDIO
    TITLE "11:cjc041_2542"
    INDEX 01 00:46:64
  TRACK 48 AUDIO
    TITLE "0:"
    INDEX 01 00:47:50
  TRACK 49 AUDIO
    TITLE "10:cjc041_2543"
    INDEX 01 00:48:30
  TRACK 50 AUDIO
    TITLE "0:"
    INDEX 01 00:49:43
  TRACK 51 AUDIO
    TITLE "11:cjc041_2544"
    INDEX 01 00:50:19
  TRACK 52 AUDIO
    TITLE "0:"
    INDEX 01 00:51:44
  TRACK 53 AUDIO
    TITLE "10:cjc041_2545"
    INDEX 01 00:52:24
  TRACK 54 AUDIO
    TITLE "0:"
    INDEX 01 00:53:35
  TRACK 55 AUDIO
    TITLE "11:cjc041_2546"
    INDEX 01 00:54:15
  TRACK 56 AUDIO
    TITLE "0:"
    INDEX 01 00:56:33
  TRACK 57 AUDIO
    TITLE "10:cjc041_2547"
    INDEX 01 00:57:11
  TRACK 58 AUDIO
    TITLE "0:"
    INDEX 01 00:58:46
  TRACK 59 AUDIO
    TITLE "11:cjc041_2548"
    INDEX 01 00:59:22
  TRACK 60 AUDIO
    TITLE "0:"
    INDEX 01 01:00:29
  TRACK 61 AUDIO
    TITLE "10:cjc041_2549"
    INDEX 01 01:01:13
  TRACK 62 AUDIO
    TITLE "0:"
    INDEX 01 01:02:22
  TRACK 63 AUDIO
    TITLE "11:cjc041_2550"
    INDEX 01 01:03:02
  TRACK 64 AUDIO
    TITLE "0:"
    INDEX 01 01:04:09
